<?xml version="1.0" encoding="UTF-8"?>
<svg version="1.1" viewBox="0 0 2000 2000" width="500" height="500" xmlns="http://www.w3.org/2000/svg">
<path transform="translate(0)" d="m0 0h2e3v2e3h-2e3z" fill="#F9FBFC"/>
<path transform="translate(779,186)" d="m0 0h441l14 3 12 5 11 7 12 11 8 11 7 14 4 14 2 15 1 32 2 1 166 1 22 1 21 6 15 8 11 8 10 9 7 8 9 14 7 15 3 14 1 12 1 26v1295l-2 18-3 10-8 16-7 10-9 10-9 9-14 10-16 8-13 4-9 1h-933l-24-1-15-3-13-6-10-6-10-8-10-9-10-12-7-11-7-16-2-7-1-8-1-19v-1278l1-35 2-17 4-13 7-13 8-11 9-10 10-9 12-8 18-8 15-3 23-1 146-1 20-1 1-34 3-18 6-15 6-11 9-11 8-7 14-9 13-5z" fill="#F9FBFC"/>
<path transform="translate(779,186)" d="m0 0h441l14 3 12 5 11 7 12 11 8 11 7 14 4 14 2 15 1 32 2 1 166 1 22 1 21 6 15 8 11 8 10 9 7 8 9 14 7 15 3 14 1 12 1 26v1295l-2 18-3 10-8 16-7 10-9 10-9 9-14 10-16 8-13 4-9 1h-933l-24-1-15-3-13-6-10-6-10-8-10-9-10-12-7-11-7-16-2-7-1-8-1-19v-1278l1-35 2-17 4-13 7-13 8-11 9-10 10-9 12-8 18-8 15-3 23-1 146-1 20-1 1-34 3-18 6-15 6-11 9-11 8-7 14-9 13-5zm512 254-2 3-1 6v34h-577l-1-2-1-39-1-1h-170l-2 2-1 103v122l1 1e3 1 1h924l1-1 1-68 1-1072-1-74v-12l-1-3-8-1z" fill="#C1DEDD"/>
<path transform="translate(779,186)" d="m0 0h441l14 3 12 5 11 7 12 11 8 11 7 14 4 14 1 7v191l-1 34h-575l-2-1-1-22v-201l3-16 7-16 7-11 10-11 13-9 14-7z" fill="#86300C"/>
<path transform="translate(841,579)" d="m0 0h8l7 4 2 3-1 9-11 20-13 22-10 17-15 26-8 13-8 14-2 5-1 124-3 5-2 2-6 1h-136l-7-1-3-3-1-3-1-31v-78l1-37 5-5 5-1h135l2-5 13-22 17-29 26-44 5-5z" fill="#142444"/>
<path transform="translate(841,1196)" d="m0 0h8l7 4 2 3-1 9-14 25-13 22-10 17-9 15-13 22-8 15-1 124-3 5-2 2-6 1h-135l-8-1-3-3-1-3-1-32v-77l1-37 5-5 5-1 135-1 8-13 17-29 13-22 14-24 8-13z" fill="#142444"/>
<path transform="translate(840,887)" d="m0 0h8l8 5 2 3v6l-8 15-14 24-9 15-15 26-12 20-8 14-2 5-1 124-3 5-2 2-6 1h-136l-7-1-3-3-1-3-1-31v-79l1-36 5-5 5-1 135-1 8-13 17-29 13-22 14-24 8-13z" fill="#142444"/>
<path transform="translate(1068,235)" d="m0 0h94l12 3 10 5 10 9 6 9 4 12 1 12-2 12-4 9-4 6-7 8-10 6-11 4-15 2h-84l-1-6v-90z" fill="#F8FBFC"/>
<path transform="translate(836,235)" d="m0 0h94l2 3v93l-2 1h-88l-16-4-12-6-11-11-7-14-2-10v-8l3-12 6-12 9-10 10-6 9-3z" fill="#F8FBFC"/>
<path transform="translate(949,1301)" d="m0 0h377l5 3 3 6-1 9-5 5-6 2h-370l-7-3-4-6v-8l4-6z" fill="#142444"/>
<path transform="translate(949,993)" d="m0 0h377l5 3 3 6-1 9-5 5-7 2h-369l-7-3-4-6v-8l4-6z" fill="#142444"/>
<path transform="translate(950,1147)" d="m0 0h376l5 3 3 7-1 7-6 7-9 1h-366l-5-2-5-6-1-2v-8l5-6z" fill="#142444"/>
<path transform="translate(950,1455)" d="m0 0h376l5 3 3 7-1 7-6 7-11 1h-363l-6-2-4-4-2-3v-9l5-6z" fill="#142444"/>
<path transform="translate(949,685)" d="m0 0h377l5 3 3 6-1 8-3 5-6 2h-376l-5-5-2-3v-9l5-6z" fill="#142444"/>
<path transform="translate(950,839)" d="m0 0h374l6 2 3 4 1 8-3 6-3 3-7 1h-373l-5-5-2-3v-9l5-6z" fill="#142444"/>
<path transform="translate(740,708)" d="m0 0h21l-1 5-15 26-12 20-6 11-4-1-8-8-8-7-8-8-8-7-9-9-4-2-7 1-6 7v8l7 8 26 26 2 1v2l4 2 12 12 10 7 7-1 4-2 2-4 14-24 8-14 4-4v66l-1 1h-109v-110l1-1z" fill="#F6FAFA"/>
<path transform="translate(759,1017)" d="m0 0h2l-1 5-14 24-9 15-10 18-4-1-17-17-8-7-14-14-5-3h-6l-6 4-2 3v8l4 6 27 27 8 7 13 13 9 6 6-1 7-7 14-24 8-14 4-4v66l-1 1h-109v-109l1-1z" fill="#F6FAFA"/>
<path transform="translate(759,1325)" d="m0 0h2l-1 5-14 24-9 15-10 18-4-1-17-17-8-7-14-14-5-3h-6l-7 6-1 2v8l7 8 24 24 8 7 13 13 9 6 7-1 6-7 17-29 7-11 2-1v65l-1 1h-109v-109l1-1z" fill="#F6FAFA"/>
<path transform="translate(841,579)" d="m0 0h8l7 4 2 3-1 9-11 20-13 22-10 17-15 26-8 13-8 14-3 6-4 5-13 22-8 15-6 9-12 21-7 11-5 5-3 2-7-1-11-9-11-11-2-1v-2l-4-2-31-31-1-2v-8l7-8 7-1 6 4 13 13 8 7 8 8 8 7 3 3 3 1 2-6 17-29 14-24 10-16 8-15 13-22 17-29 26-44 5-5z" fill="#E4445A"/>
<path transform="translate(841,1196)" d="m0 0h8l7 4 2 3-1 9-14 25-13 22-10 17-9 15-13 22-9 16-4 5-9 16-8 14-12 20-10 17-9 14-6 5-7-1-10-8-16-16-8-7-25-25-1-2v-8l7-8 2-1h6l8 6 17 17 8 7 12 12 3 1 2-6 11-19 9-15 11-19 1-3h2l2-4 9-17 4-7 16-27 17-29 10-17 11-19 4-6z" fill="#E4445A"/>
<path transform="translate(840,887)" d="m0 0h8l8 5 2 3v6l-8 15-14 24-9 15-15 26-12 20-8 14-3 6-4 5-13 22-8 15-6 9-12 21-7 11-7 7-6 1-6-4-10-9-12-12-8-7-24-24-2-4v-8l5-6 4-2h6l8 6 17 17 8 7 12 12 3 1 2-6 11-19 9-15 11-19 1-3h2l2-4 9-17 4-7 16-27 17-29 10-17 14-24z" fill="#E4445A"/>
</svg>
